<svg t="1686837668779" class="icon" viewBox="0 0 1024 1024" version="1.1" xmlns="http://www.w3.org/2000/svg" p-id="4529" width="200" height="200"><path d="M881.152 230.912c-3.584-24.064-23.04-42.496-47.104-45.056H218.624c-20.48 1.536-38.4-14.336-39.424-35.328-1.536-20.992 14.336-38.4 35.328-39.424h611.84c16.384 0 30.208-13.824 30.208-30.208s-13.824-30.208-30.208-30.208H225.792C163.328 50.688 112.64 100.864 112.64 163.84v675.84c0 62.976 51.2 113.152 113.152 113.152h597.504c32.256 0 58.88-26.624 58.88-58.88V230.912h-1.024z m-152.064 226.304c-0.512 0.512-1.024 1.024-1.536 2.048-20.48 25.088-39.424 47.104-56.32 65.536-45.568 48.64-62.464 54.272-71.168 54.272-1.024 0-2.048 0-3.072-0.512-14.336-3.072-27.136-11.776-34.304-16.896l-16.896 19.968c25.088 25.088 141.824 140.8 146.944 145.92s9.216 15.872 8.704 28.16c-0.512 10.24-4.608 18.944-12.288 24.576-6.656 5.632-15.872 8.704-25.6 8.704-10.752 0-19.968-3.584-24.576-9.728-4.608-5.632-86.528-98.816-133.12-152.576l-141.824 152.576c-6.144 6.656-15.36 9.728-26.112 9.728-10.24 0-20.48-3.072-27.648-8.192-6.656-4.608-10.752-12.8-11.264-23.04-1.024-12.288 2.56-24.576 9.216-31.744 8.192-8.704 124.928-118.784 151.552-143.872l-12.288-13.312c-5.12 0.512-14.336 1.536-23.552 1.536-8.192 0-15.36-0.512-20.48-2.048-3.584-1.024-9.216-3.584-25.088-17.92-9.728-9.216-22.016-20.992-33.792-34.304-10.24-11.264-44.544-50.176-49.664-67.072-6.144-22.528-3.072-48.64-2.56-52.736 0-11.264 5.12-31.232 23.04-31.232 11.264 0 25.6 8.704 43.008 26.624 9.728 10.24 121.344 122.88 146.944 148.48l15.36-15.872c-6.656-6.144-16.384-16.384-18.432-27.136-3.072-14.336 0.512-20.48 6.656-33.792 0.512-1.024 1.024-2.56 2.048-4.096 10.752-22.528 90.624-95.232 103.936-105.984 4.096-3.072 8.192-4.608 12.8-4.608 7.168 0 14.336 4.608 17.92 12.288 3.072 6.144 3.072 12.8-0.512 17.408-4.608 6.656-75.264 80.384-84.48 90.112-2.048 3.072-7.168 11.264-4.096 14.336 0.512 0.512 0.512 0.512 1.536 0.512 3.584 0 9.728-4.608 11.776-6.656 4.096-4.608 76.8-77.312 82.944-83.456 3.584-3.584 8.192-5.632 12.8-5.632 8.704 0 15.36 6.656 18.432 13.312 3.072 6.656 2.048 12.8-1.536 17.408-6.144 7.168-78.848 88.576-81.92 92.16v0.512c-1.024 1.024-5.12 6.144-2.048 10.24 0.512 0.512 1.024 1.024 1.536 1.024 3.072 0 8.192-3.584 10.24-5.12 3.584-3.584 76.8-77.312 84.992-85.504 3.072-3.072 6.656-4.608 11.264-4.608 9.216 0 19.968 6.656 23.552 15.36 3.072 5.632 2.56 10.752-1.024 14.848z" fill="#E8B942" p-id="4530"></path></svg>